<svg xmlns="http://www.w3.org/2000/svg" width="76" height="74" fill="none" viewBox="0 0 76 74"><path fill="currentColor" d="M74.757 73.649H1.243a1.08 1.08 0 0 1-1.08-1.081V20.4a1.081 1.081 0 0 1 1.08-1.081h73.514a1.08 1.08 0 0 1 1.08 1.081v52.168a1.08 1.08 0 0 1-1.08 1.08zM2.324 71.487h71.352V21.48H2.324v50.006z"></path><path fill="currentColor" d="M74.757 21.481H1.243a1.08 1.08 0 0 1-.865-1.73L14.607.785a1.081 1.081 0 0 1 .864-.432H60.53a1.081 1.081 0 0 1 .865.432l14.228 18.968a1.081 1.081 0 0 1-.865 1.73zM3.405 19.32h69.19L59.988 2.514H16.012L3.405 19.319z"></path><path fill="currentColor" d="M47.19 21.481H28.81a1.082 1.082 0 0 1-1.059-1.297l3.784-18.968a1.08 1.08 0 0 1 1.06-.864h10.81a1.08 1.08 0 0 1 1.06.864l3.784 18.971a1.08 1.08 0 0 1-1.06 1.297v-.003zM30.128 19.32H45.87L42.52 2.514h-9.038L30.13 19.319z"></path><path fill="currentColor" d="M47.19 41.848a1.08 1.08 0 0 1-.685-.245L38 34.653l-8.505 6.95a1.08 1.08 0 0 1-1.765-.836V20.4a1.08 1.08 0 0 1 1.08-1.081h18.38a1.08 1.08 0 0 1 1.08 1.081v20.367a1.08 1.08 0 0 1-1.08 1.08zM38 32.176c.25 0 .491.087.684.245l7.424 6.066V21.48H29.892v17.006l7.424-6.067a1.08 1.08 0 0 1 .684-.244z"></path></svg>