<svg xmlns="http://www.w3.org/2000/svg" width="76" height="46" fill="none" viewBox="0 0 76 46"><path fill="currentColor" d="M74.757 45.702H1.243a1.08 1.08 0 0 1-1.08-1.08V33.593a1.081 1.081 0 0 1 .864-1.06 9.73 9.73 0 0 0 0-19.07 1.081 1.081 0 0 1-.865-1.059V1.378A1.081 1.081 0 0 1 1.243.297h73.514a1.08 1.08 0 0 1 1.08 1.081v11.027a1.082 1.082 0 0 1-.864 1.06 9.73 9.73 0 0 0 0 19.07 1.081 1.081 0 0 1 .865 1.06V44.62a1.08 1.08 0 0 1-1.081 1.081zM2.324 43.54h71.352v-9.097a11.892 11.892 0 0 1 0-22.887V2.46H2.324v9.097a11.892 11.892 0 0 1 0 22.887v9.097z"></path><path fill="currentColor" d="M54.216 6.39a1.081 1.081 0 0 1-1.08-1.081V1.378a1.081 1.081 0 0 1 2.161 0v3.93a1.081 1.081 0 0 1-1.08 1.082zm0 9.828a1.08 1.08 0 0 1-1.08-1.08v-3.932a1.081 1.081 0 0 1 2.161 0v3.931a1.081 1.081 0 0 1-1.08 1.081zm0 9.828a1.08 1.08 0 0 1-1.08-1.081v-3.93a1.081 1.081 0 0 1 2.161 0v3.931a1.081 1.081 0 0 1-1.08 1.08zm0 9.828a1.08 1.08 0 0 1-1.08-1.08v-3.931a1.082 1.082 0 0 1 2.161 0v3.93a1.081 1.081 0 0 1-1.08 1.081zm0 9.828a1.08 1.08 0 0 1-1.08-1.08V40.69a1.082 1.082 0 0 1 2.161 0v3.931a1.081 1.081 0 0 1-1.08 1.081zm-33.59-11.305a1.081 1.081 0 0 1-.764-1.846l20.034-20.045a1.082 1.082 0 1 1 1.529 1.529L21.39 34.08a1.082 1.082 0 0 1-.764.316zm16.704.516a4.993 4.993 0 1 1 4.994-4.994 5 5 0 0 1-4.993 4.994zm0-7.826a2.832 2.832 0 1 0 .001 5.663 2.832 2.832 0 0 0 0-5.663zm-13.796-6.079a4.994 4.994 0 1 1 4.994-4.995 5 5 0 0 1-4.994 4.995zm0-7.826a2.832 2.832 0 1 0 0 5.663 2.832 2.832 0 0 0 0-5.663z"></path></svg>