<svg xmlns="http://www.w3.org/2000/svg" width="76" height="72" fill="none" viewBox="0 0 76 72"><path fill="currentColor" d="M64.733 71.123H11.267a4.432 4.432 0 0 1-4.422-4.42V31.614a1.081 1.081 0 0 1 1.081-1.08h60.147a1.081 1.081 0 0 1 1.082 1.08v35.089a4.432 4.432 0 0 1-4.422 4.42zM9.008 32.695v34.008a2.263 2.263 0 0 0 2.26 2.26h53.465a2.262 2.262 0 0 0 2.26-2.26V32.695H9.007z"></path><path fill="currentColor" d="M73.085 32.695H2.915a2.755 2.755 0 0 1-2.753-2.749v-8.357a2.755 2.755 0 0 1 2.753-2.751h70.17a2.755 2.755 0 0 1 2.753 2.751v8.357a2.755 2.755 0 0 1-2.753 2.75zM2.915 21a.59.59 0 0 0-.59.59v8.356a.59.59 0 0 0 .59.59h70.17a.59.59 0 0 0 .59-.59v-8.357a.59.59 0 0 0-.59-.589H2.915z"></path><path fill="currentColor" d="M40.23 21a1.081 1.081 0 0 1-1.032-1.404c1.336-4.276 3.732-10.054 7.554-13.333A7.946 7.946 0 0 1 57.08 18.34a17.38 17.38 0 0 1-4.117 2.558 1.082 1.082 0 0 1-1.267-1.718c.102-.104.224-.186.36-.242a15.29 15.29 0 0 0 3.614-2.235 5.782 5.782 0 1 0-7.507-8.796C44.55 11 42.29 16.963 41.265 20.242A1.081 1.081 0 0 1 40.23 21z"></path><path fill="currentColor" d="M40.23 21a1.08 1.08 0 0 1-1.031-.757c-1.281-4.094-4.108-11.54-8.636-15.42a7.433 7.433 0 0 0-9.66 11.3 19.242 19.242 0 0 0 4.55 2.816 1.08 1.08 0 1 1-.908 1.962 21.321 21.321 0 0 1-5.052-3.136A9.597 9.597 0 0 1 31.968 3.178c4.695 4.02 7.645 11.147 9.297 16.419A1.081 1.081 0 0 1 40.23 21zm3.932 50.123H31.838a1.081 1.081 0 0 1-1.081-1.08v-38.43a1.081 1.081 0 0 1 1.08-1.08h12.325a1.081 1.081 0 0 1 1.081 1.08v38.428a1.081 1.081 0 0 1-1.08 1.081zM32.92 68.961h10.16V32.695H32.92v36.266z"></path></svg>